<svg xmlns="http://www.w3.org/2000/svg" viewBox="0 0 625.88 180"><defs><style>.a,.b,.d{fill:none;stroke:#409eff;stroke-miterlimit:10;}.a{stroke-width:12px;}.b{stroke-width:6px;}.c{fill:#fff;}.d{stroke-width:9px;}.e{fill:#409eff;}</style></defs><circle class="a" cx="90" cy="90" r="84"/><circle class="b" cx="90" cy="90" r="68.03"/><path class="c" d="M159.44,678.86H227.3" transform="translate(-137.47 -588.86)"/><path class="d" d="M159.44,678.86h58.1" transform="translate(-137.47 -588.86)"/><polygon class="e" points="50.24 126.81 44.1 120.22 76.61 90.01 44.1 59.79 50.24 53.2 89.83 90.01 50.24 126.81"/><path class="c" d="M295.5,678.86H227.64" transform="translate(-137.47 -588.86)"/><path class="d" d="M295.5,678.86H237.4" transform="translate(-137.47 -588.86)"/><polygon class="e" points="129.76 53.19 135.9 59.78 103.39 89.99 135.9 120.21 129.76 126.8 90.17 89.99 129.76 53.19"/><path class="e" d="M357.27,745.81q-10.8,0-10.8-4.86V622.33q0-6.48,10.8-6.48H363q10.08,0,12.42,6.84L416,733.93q-10.44-29.86-12.78-22.68l31-88.56q2.34-6.83,12.42-6.84h5.76q10.8,0,10.8,6.48V741q0,4.86-11.16,4.86-11,0-11-4.86l1.8-88.92q-1.08,2.7-26.82,73.8-2.52,6.67-12.42,6.66c-5.16,0-8.28-1.55-9.36-4.68q-32.94-90-27.18-72.9l1.08,86Q368.07,745.81,357.27,745.81Z" transform="translate(-137.47 -588.86)"/><path class="e" d="M494.61,745.81c-7,0-10.14-.59-9.54-1.8L522,678.67l-34.38-61c-.6-1.19,3-1.8,10.8-1.8s12.78,2.11,14.94,6.3l22,40.86,21.24-41q3.24-6.11,15.12-6.12c7.08,0,10.32.61,9.72,1.8L547,679.57,583.89,744c.6,1.21-3,1.8-10.8,1.8s-12.78-2.09-14.94-6.3l-24.3-44.82-23.94,44.82Q506.67,745.83,494.61,745.81Z" transform="translate(-137.47 -588.86)"/><path class="e" d="M653.91,748.15q-24.48,0-38.34-14.58-12.24-12.77-12.24-41.22V620.71q0-4.86,11.52-4.86,11.7,0,11.7,4.86v72.18q0,42.84,27.36,42.84,28.26,0,28.26-42.84V620.71q0-4.86,11.16-4.86,11.34,0,11.34,4.86v71.64q0,28.46-12.24,41.22Q678.57,748.15,653.91,748.15Z" transform="translate(-137.47 -588.86)"/><path class="e" d="M751.65,745.81q-11.52,0-11.52-4.86V620.71q0-4.86,11.52-4.86,11.7,0,11.7,4.86V741Q763.35,745.81,751.65,745.81Z" transform="translate(-137.47 -588.86)"/></svg>